<svg width="97" height="141" viewBox="0 0 97 141" fill="none" xmlns="http://www.w3.org/2000/svg">
<path d="M86.5322 38.528C89.0104 47.7767 88.0448 57.6107 83.8151 66.2007C79.5854 74.7908 72.3795 81.552 63.5378 85.2268C54.6962 88.9016 44.8207 89.2398 35.7484 86.1784C26.676 83.117 19.0245 76.8645 14.2172 68.5839C9.40975 60.3033 7.77376 50.5584 9.61349 41.1619C11.4532 31.7654 16.6434 23.357 24.2186 17.5007C31.7938 11.6445 41.2383 8.7392 50.7953 9.3252C60.3523 9.9112 69.3711 13.9486 76.1741 20.6865" stroke="#E3E3E3" stroke-width="4" stroke-linecap="round" stroke-linejoin="round"/>
<path d="M23.2579 117.59C24.1429 118.535 25.4779 119.18 27.3229 119.18C30.0229 119.18 31.1929 117.755 31.1929 116.09C31.1929 113.915 29.2279 113.405 27.5779 112.985C26.3929 112.685 25.3729 112.43 25.3729 111.65C25.3729 110.9 26.0329 110.405 27.0679 110.405C28.1179 110.405 29.1829 110.765 29.9629 111.545L30.9679 110.24C30.0379 109.34 28.7779 108.845 27.2179 108.845C25.0279 108.845 23.5729 110.12 23.5729 111.77C23.5729 113.885 25.4929 114.365 27.1279 114.77C28.3429 115.085 29.4079 115.355 29.4079 116.255C29.4079 116.915 28.8379 117.62 27.3979 117.62C26.0029 117.62 24.9229 116.975 24.2329 116.24L23.2579 117.59ZM32.3591 114.005C32.3591 116.99 34.4741 119.18 37.4741 119.18C40.4741 119.18 42.5891 116.99 42.5891 114.005C42.5891 111.02 40.4741 108.83 37.4741 108.83C34.4741 108.83 32.3591 111.02 32.3591 114.005ZM40.7891 114.005C40.7891 116.06 39.4841 117.62 37.4741 117.62C35.4491 117.62 34.1591 116.06 34.1591 114.005C34.1591 111.935 35.4491 110.39 37.4741 110.39C39.4841 110.39 40.7891 111.935 40.7891 114.005ZM49.0039 119.18C51.1039 119.18 52.3339 118.13 53.0989 116.93L51.5989 116.165C51.1189 117.005 50.1589 117.62 49.0039 117.62C47.0989 117.62 45.6289 116.105 45.6289 114.005C45.6289 111.905 47.0989 110.39 49.0039 110.39C50.1589 110.39 51.1189 111.02 51.5989 111.845L53.0989 111.08C52.3489 109.88 51.1039 108.83 49.0039 108.83C46.1239 108.83 43.8289 110.93 43.8289 114.005C43.8289 117.08 46.1239 119.18 49.0039 119.18ZM56.2585 119V108.995H54.5035V119H56.2585ZM67.3853 119L63.4553 108.995H61.2653L57.3353 119H59.2553L59.9903 117.08H64.7303L65.4653 119H67.3853ZM64.2353 115.535H60.4853L62.3603 110.48L64.2353 115.535ZM74.6431 119V117.455H70.2331V108.995H68.4781V119H74.6431ZM26.8664 137V133.265H29.5064C31.5914 133.265 32.7764 131.825 32.7764 130.13C32.7764 128.435 31.6064 126.995 29.5064 126.995H25.1114V137H26.8664ZM30.9764 130.13C30.9764 131.09 30.2564 131.72 29.2664 131.72H26.8664V128.54H29.2664C30.2564 128.54 30.9764 129.17 30.9764 130.13ZM41.9774 137L39.5324 133.07C40.7324 132.875 41.9024 131.915 41.9024 130.13C41.9024 128.285 40.6124 126.995 38.6324 126.995H34.2374V137H35.9924V133.265H37.7324L39.9524 137H41.9774ZM40.1024 130.13C40.1024 131.09 39.3824 131.72 38.3924 131.72H35.9924V128.54H38.3924C39.3824 128.54 40.1024 129.17 40.1024 130.13ZM43.2063 132.005C43.2063 134.99 45.3213 137.18 48.3213 137.18C51.3213 137.18 53.4363 134.99 53.4363 132.005C53.4363 129.02 51.3213 126.83 48.3213 126.83C45.3213 126.83 43.2063 129.02 43.2063 132.005ZM51.6363 132.005C51.6363 134.06 50.3313 135.62 48.3213 135.62C46.2963 135.62 45.0063 134.06 45.0063 132.005C45.0063 129.935 46.2963 128.39 48.3213 128.39C50.3313 128.39 51.6363 129.935 51.6363 132.005ZM54.676 132.005C54.676 134.99 56.791 137.18 59.791 137.18C62.791 137.18 64.906 134.99 64.906 132.005C64.906 129.02 62.791 126.83 59.791 126.83C56.791 126.83 54.676 129.02 54.676 132.005ZM63.106 132.005C63.106 134.06 61.801 135.62 59.791 135.62C57.766 135.62 56.476 134.06 56.476 132.005C56.476 129.935 57.766 128.39 59.791 128.39C61.801 128.39 63.106 129.935 63.106 132.005ZM68.3508 137V132.68H73.3458V131.135H68.3508V128.54H73.4508V126.995H66.5958V137H68.3508Z" fill="#C5C5C5"/>
</svg>
