<svg width="97" height="141" viewBox="0 0 97 141" fill="none" xmlns="http://www.w3.org/2000/svg">
<path d="M86.5322 38.528C89.0104 47.7767 88.0448 57.6107 83.8151 66.2007C79.5854 74.7908 72.3795 81.552 63.5378 85.2268C54.6962 88.9016 44.8207 89.2398 35.7484 86.1784C26.676 83.117 19.0245 76.8645 14.2172 68.5839C9.40975 60.3033 7.77376 50.5584 9.61349 41.1619C11.4532 31.7654 16.6434 23.357 24.2186 17.5007C31.7938 11.6445 41.2383 8.7392 50.7953 9.3252C60.3523 9.9112 69.3711 13.9486 76.1741 20.6865" stroke="#E3E3E3" stroke-width="4" stroke-linecap="round" stroke-linejoin="round"/>
<path d="M14.8424 119V117.455H9.74236V114.68H14.7374V113.135H9.74236V110.54H14.8424V108.995H7.98736V119H14.8424ZM20.3646 119C23.4846 119 25.5996 116.945 25.5996 114.005C25.5996 111.065 23.4846 108.995 20.3646 108.995H16.6446V119H20.3646ZM18.3996 110.54H20.3646C22.5996 110.54 23.7996 112.07 23.7996 114.005C23.7996 115.895 22.5396 117.455 20.3646 117.455H18.3996V110.54ZM27.294 115.055C27.294 117.515 28.719 119.18 31.629 119.18C34.524 119.18 35.949 117.53 35.949 115.04V108.995H34.179V114.995C34.179 116.585 33.294 117.62 31.629 117.62C29.949 117.62 29.064 116.585 29.064 114.995V108.995H27.294V115.055ZM42.8003 119.18C44.9003 119.18 46.1303 118.13 46.8953 116.93L45.3953 116.165C44.9153 117.005 43.9553 117.62 42.8003 117.62C40.8953 117.62 39.4253 116.105 39.4253 114.005C39.4253 111.905 40.8953 110.39 42.8003 110.39C43.9553 110.39 44.9153 111.02 45.3953 111.845L46.8953 111.08C46.1453 109.88 44.9003 108.83 42.8003 108.83C39.9203 108.83 37.6253 110.93 37.6253 114.005C37.6253 117.08 39.9203 119.18 42.8003 119.18ZM57.2266 119L53.2966 108.995H51.1066L47.1766 119H49.0966L49.8316 117.08H54.5716L55.3066 119H57.2266ZM54.0766 115.535H50.3266L52.2016 110.48L54.0766 115.535ZM61.4779 119V110.54H64.5079V108.995H56.6929V110.54H59.7229V119H61.4779ZM67.7502 119V108.995H65.9952V119H67.7502ZM69.427 114.005C69.427 116.99 71.542 119.18 74.542 119.18C77.542 119.18 79.657 116.99 79.657 114.005C79.657 111.02 77.542 108.83 74.542 108.83C71.542 108.83 69.427 111.02 69.427 114.005ZM77.857 114.005C77.857 116.06 76.552 117.62 74.542 117.62C72.517 117.62 71.227 116.06 71.227 114.005C71.227 111.935 72.517 110.39 74.542 110.39C76.552 110.39 77.857 111.935 77.857 114.005ZM90.0167 119V108.995H88.2617V116.09L83.1467 108.995H81.3467V119H83.1017V111.71L88.3217 119H90.0167ZM26.8664 137V133.265H29.5064C31.5914 133.265 32.7764 131.825 32.7764 130.13C32.7764 128.435 31.6064 126.995 29.5064 126.995H25.1114V137H26.8664ZM30.9764 130.13C30.9764 131.09 30.2564 131.72 29.2664 131.72H26.8664V128.54H29.2664C30.2564 128.54 30.9764 129.17 30.9764 130.13ZM41.9774 137L39.5324 133.07C40.7324 132.875 41.9024 131.915 41.9024 130.13C41.9024 128.285 40.6124 126.995 38.6324 126.995H34.2374V137H35.9924V133.265H37.7324L39.9524 137H41.9774ZM40.1024 130.13C40.1024 131.09 39.3824 131.72 38.3924 131.72H35.9924V128.54H38.3924C39.3824 128.54 40.1024 129.17 40.1024 130.13ZM43.2063 132.005C43.2063 134.99 45.3213 137.18 48.3213 137.18C51.3213 137.18 53.4363 134.99 53.4363 132.005C53.4363 129.02 51.3213 126.83 48.3213 126.83C45.3213 126.83 43.2063 129.02 43.2063 132.005ZM51.6363 132.005C51.6363 134.06 50.3313 135.62 48.3213 135.62C46.2963 135.62 45.0063 134.06 45.0063 132.005C45.0063 129.935 46.2963 128.39 48.3213 128.39C50.3313 128.39 51.6363 129.935 51.6363 132.005ZM54.676 132.005C54.676 134.99 56.791 137.18 59.791 137.18C62.791 137.18 64.906 134.99 64.906 132.005C64.906 129.02 62.791 126.83 59.791 126.83C56.791 126.83 54.676 129.02 54.676 132.005ZM63.106 132.005C63.106 134.06 61.801 135.62 59.791 135.62C57.766 135.62 56.476 134.06 56.476 132.005C56.476 129.935 57.766 128.39 59.791 128.39C61.801 128.39 63.106 129.935 63.106 132.005ZM68.3508 137V132.68H73.3458V131.135H68.3508V128.54H73.4508V126.995H66.5958V137H68.3508Z" fill="#C5C5C5"/>
</svg>
