<svg width="97" height="142" viewBox="0 0 97 142" fill="none" xmlns="http://www.w3.org/2000/svg">
<path d="M86.5323 38.5281C89.0104 47.7767 88.0449 57.6107 83.8151 66.2007C79.5854 74.7908 72.3795 81.552 63.5379 85.2268C54.6962 88.9016 44.8207 89.2398 35.7484 86.1784C26.6761 83.117 19.0246 76.8645 14.2172 68.5839C9.40979 60.3033 7.7738 50.5584 9.61353 41.1619C11.4533 31.7654 16.6434 23.357 24.2187 17.5007C31.7939 11.6445 41.2384 8.7392 50.7953 9.3252C60.3523 9.9112 69.3711 13.9486 76.1741 20.6865" stroke="#127E00" stroke-width="4" stroke-linecap="round" stroke-linejoin="round"/>
<path d="M30 43.4026L45.4206 63.3737L85 10.3736" stroke="#127E00" stroke-width="4"/>
<path d="M30.1091 119.374V109.369H28.3541V113.464H23.1491V109.369H21.3941V119.374H23.1491V115.009H28.3541V119.374H30.1091ZM39.0889 119.374V117.829H33.9889V115.054H38.9839V113.509H33.9889V110.914H39.0889V109.369H32.2339V119.374H39.0889ZM49.8912 119.374L45.9612 109.369H43.7712L39.8412 119.374H41.7612L42.4962 117.454H47.2362L47.9712 119.374H49.8912ZM46.7412 115.909H42.9912L44.8662 110.854L46.7412 115.909ZM57.1489 119.374V117.829H52.7389V109.369H50.9839V119.374H57.1489ZM61.3788 119.374V110.914H64.4088V109.369H56.5938V110.914H59.6238V119.374H61.3788ZM74.6111 119.374V109.369H72.8561V113.464H67.6511V109.369H65.8961V119.374H67.6511V115.009H72.8561V119.374H74.6111ZM25.8664 137.374V133.639H28.5064C30.5914 133.639 31.7764 132.199 31.7764 130.504C31.7764 128.809 30.6064 127.369 28.5064 127.369H24.1114V137.374H25.8664ZM29.9764 130.504C29.9764 131.464 29.2564 132.094 28.2664 132.094H25.8664V128.914H28.2664C29.2564 128.914 29.9764 129.544 29.9764 130.504ZM40.9774 137.374L38.5324 133.444C39.7324 133.249 40.9024 132.289 40.9024 130.504C40.9024 128.659 39.6124 127.369 37.6324 127.369H33.2374V137.374H34.9924V133.639H36.7324L38.9524 137.374H40.9774ZM39.1024 130.504C39.1024 131.464 38.3824 132.094 37.3924 132.094H34.9924V128.914H37.3924C38.3824 128.914 39.1024 129.544 39.1024 130.504ZM42.2063 132.379C42.2063 135.364 44.3213 137.554 47.3213 137.554C50.3213 137.554 52.4363 135.364 52.4363 132.379C52.4363 129.394 50.3213 127.204 47.3213 127.204C44.3213 127.204 42.2063 129.394 42.2063 132.379ZM50.6363 132.379C50.6363 134.434 49.3313 135.994 47.3213 135.994C45.2963 135.994 44.0063 134.434 44.0063 132.379C44.0063 130.309 45.2963 128.764 47.3213 128.764C49.3313 128.764 50.6363 130.309 50.6363 132.379ZM53.676 132.379C53.676 135.364 55.791 137.554 58.791 137.554C61.791 137.554 63.906 135.364 63.906 132.379C63.906 129.394 61.791 127.204 58.791 127.204C55.791 127.204 53.676 129.394 53.676 132.379ZM62.106 132.379C62.106 134.434 60.801 135.994 58.791 135.994C56.766 135.994 55.476 134.434 55.476 132.379C55.476 130.309 56.766 128.764 58.791 128.764C60.801 128.764 62.106 130.309 62.106 132.379ZM67.3508 137.374V133.054H72.3458V131.509H67.3508V128.914H72.4508V127.369H65.5958V137.374H67.3508Z" fill="#127E00"/>
</svg>
