<svg width="97" height="141" viewBox="0 0 97 141" fill="none" xmlns="http://www.w3.org/2000/svg">
<path d="M86.5322 38.528C89.0104 47.7767 88.0448 57.6107 83.8151 66.2007C79.5854 74.7908 72.3795 81.552 63.5378 85.2268C54.6962 88.9016 44.8207 89.2398 35.7484 86.1784C26.676 83.117 19.0245 76.8645 14.2172 68.5839C9.40975 60.3033 7.77376 50.5584 9.61349 41.1619C11.4532 31.7654 16.6434 23.357 24.2186 17.5007C31.7938 11.6445 41.2383 8.7392 50.7953 9.3252C60.3523 9.9112 69.3711 13.9486 76.1741 20.6865" stroke="#E3E3E3" stroke-width="4" stroke-linecap="round" stroke-linejoin="round"/>
<path d="M31.1091 119V108.995H29.3541V113.09H24.1491V108.995H22.3941V119H24.1491V114.635H29.3541V119H31.1091ZM40.0889 119V117.455H34.9889V114.68H39.9839V113.135H34.9889V110.54H40.0889V108.995H33.2339V119H40.0889ZM50.8912 119L46.9612 108.995H44.7712L40.8412 119H42.7612L43.4962 117.08H48.2362L48.9712 119H50.8912ZM47.7412 115.535H43.9912L45.8662 110.48L47.7412 115.535ZM58.1489 119V117.455H53.7389V108.995H51.9839V119H58.1489ZM62.3788 119V110.54H65.4088V108.995H57.5938V110.54H60.6238V119H62.3788ZM75.6111 119V108.995H73.8561V113.09H68.6511V108.995H66.8961V119H68.6511V114.635H73.8561V119H75.6111ZM26.8664 137V133.265H29.5064C31.5914 133.265 32.7764 131.825 32.7764 130.13C32.7764 128.435 31.6064 126.995 29.5064 126.995H25.1114V137H26.8664ZM30.9764 130.13C30.9764 131.09 30.2564 131.72 29.2664 131.72H26.8664V128.54H29.2664C30.2564 128.54 30.9764 129.17 30.9764 130.13ZM41.9774 137L39.5324 133.07C40.7324 132.875 41.9024 131.915 41.9024 130.13C41.9024 128.285 40.6124 126.995 38.6324 126.995H34.2374V137H35.9924V133.265H37.7324L39.9524 137H41.9774ZM40.1024 130.13C40.1024 131.09 39.3824 131.72 38.3924 131.72H35.9924V128.54H38.3924C39.3824 128.54 40.1024 129.17 40.1024 130.13ZM43.2063 132.005C43.2063 134.99 45.3213 137.18 48.3213 137.18C51.3213 137.18 53.4363 134.99 53.4363 132.005C53.4363 129.02 51.3213 126.83 48.3213 126.83C45.3213 126.83 43.2063 129.02 43.2063 132.005ZM51.6363 132.005C51.6363 134.06 50.3313 135.62 48.3213 135.62C46.2963 135.62 45.0063 134.06 45.0063 132.005C45.0063 129.935 46.2963 128.39 48.3213 128.39C50.3313 128.39 51.6363 129.935 51.6363 132.005ZM54.676 132.005C54.676 134.99 56.791 137.18 59.791 137.18C62.791 137.18 64.906 134.99 64.906 132.005C64.906 129.02 62.791 126.83 59.791 126.83C56.791 126.83 54.676 129.02 54.676 132.005ZM63.106 132.005C63.106 134.06 61.801 135.62 59.791 135.62C57.766 135.62 56.476 134.06 56.476 132.005C56.476 129.935 57.766 128.39 59.791 128.39C61.801 128.39 63.106 129.935 63.106 132.005ZM68.3508 137V132.68H73.3458V131.135H68.3508V128.54H73.4508V126.995H66.5958V137H68.3508Z" fill="#C5C5C5"/>
</svg>
