<svg width="97" height="142" viewBox="0 0 97 142" fill="none" xmlns="http://www.w3.org/2000/svg">
<path d="M86.5323 38.5281C89.0104 47.7767 88.0449 57.6107 83.8151 66.2007C79.5854 74.7908 72.3795 81.552 63.5379 85.2268C54.6962 88.9016 44.8207 89.2398 35.7484 86.1784C26.6761 83.117 19.0246 76.8645 14.2172 68.5839C9.40979 60.3033 7.7738 50.5584 9.61353 41.1619C11.4533 31.7654 16.6434 23.357 24.2187 17.5007C31.7939 11.6445 41.2384 8.7392 50.7953 9.3252C60.3523 9.9112 69.3711 13.9486 76.1741 20.6865" stroke="#127E00" stroke-width="4" stroke-linecap="round" stroke-linejoin="round"/>
<path d="M30 43.4026L45.4206 63.3737L85 10.3736" stroke="#127E00" stroke-width="4"/>
<path d="M13.8424 119.374V117.829H8.74236V115.054H13.7374V113.509H8.74236V110.914H13.8424V109.369H6.98736V119.374H13.8424ZM19.3646 119.374C22.4846 119.374 24.5996 117.319 24.5996 114.379C24.5996 111.439 22.4846 109.369 19.3646 109.369H15.6446V119.374H19.3646ZM17.3996 110.914H19.3646C21.5996 110.914 22.7996 112.444 22.7996 114.379C22.7996 116.269 21.5396 117.829 19.3646 117.829H17.3996V110.914ZM26.294 115.429C26.294 117.889 27.719 119.554 30.629 119.554C33.524 119.554 34.949 117.904 34.949 115.414V109.369H33.179V115.369C33.179 116.959 32.294 117.994 30.629 117.994C28.949 117.994 28.064 116.959 28.064 115.369V109.369H26.294V115.429ZM41.8003 119.554C43.9003 119.554 45.1303 118.504 45.8953 117.304L44.3953 116.539C43.9153 117.379 42.9553 117.994 41.8003 117.994C39.8953 117.994 38.4253 116.479 38.4253 114.379C38.4253 112.279 39.8953 110.764 41.8003 110.764C42.9553 110.764 43.9153 111.394 44.3953 112.219L45.8953 111.454C45.1453 110.254 43.9003 109.204 41.8003 109.204C38.9203 109.204 36.6253 111.304 36.6253 114.379C36.6253 117.454 38.9203 119.554 41.8003 119.554ZM56.2266 119.374L52.2966 109.369H50.1066L46.1766 119.374H48.0966L48.8316 117.454H53.5716L54.3066 119.374H56.2266ZM53.0766 115.909H49.3266L51.2016 110.854L53.0766 115.909ZM60.4779 119.374V110.914H63.5079V109.369H55.6929V110.914H58.7229V119.374H60.4779ZM66.7502 119.374V109.369H64.9952V119.374H66.7502ZM68.427 114.379C68.427 117.364 70.542 119.554 73.542 119.554C76.542 119.554 78.657 117.364 78.657 114.379C78.657 111.394 76.542 109.204 73.542 109.204C70.542 109.204 68.427 111.394 68.427 114.379ZM76.857 114.379C76.857 116.434 75.552 117.994 73.542 117.994C71.517 117.994 70.227 116.434 70.227 114.379C70.227 112.309 71.517 110.764 73.542 110.764C75.552 110.764 76.857 112.309 76.857 114.379ZM89.0167 119.374V109.369H87.2617V116.464L82.1467 109.369H80.3467V119.374H82.1017V112.084L87.3217 119.374H89.0167ZM25.8664 137.374V133.639H28.5064C30.5914 133.639 31.7764 132.199 31.7764 130.504C31.7764 128.809 30.6064 127.369 28.5064 127.369H24.1114V137.374H25.8664ZM29.9764 130.504C29.9764 131.464 29.2564 132.094 28.2664 132.094H25.8664V128.914H28.2664C29.2564 128.914 29.9764 129.544 29.9764 130.504ZM40.9774 137.374L38.5324 133.444C39.7324 133.249 40.9024 132.289 40.9024 130.504C40.9024 128.659 39.6124 127.369 37.6324 127.369H33.2374V137.374H34.9924V133.639H36.7324L38.9524 137.374H40.9774ZM39.1024 130.504C39.1024 131.464 38.3824 132.094 37.3924 132.094H34.9924V128.914H37.3924C38.3824 128.914 39.1024 129.544 39.1024 130.504ZM42.2063 132.379C42.2063 135.364 44.3213 137.554 47.3213 137.554C50.3213 137.554 52.4363 135.364 52.4363 132.379C52.4363 129.394 50.3213 127.204 47.3213 127.204C44.3213 127.204 42.2063 129.394 42.2063 132.379ZM50.6363 132.379C50.6363 134.434 49.3313 135.994 47.3213 135.994C45.2963 135.994 44.0063 134.434 44.0063 132.379C44.0063 130.309 45.2963 128.764 47.3213 128.764C49.3313 128.764 50.6363 130.309 50.6363 132.379ZM53.676 132.379C53.676 135.364 55.791 137.554 58.791 137.554C61.791 137.554 63.906 135.364 63.906 132.379C63.906 129.394 61.791 127.204 58.791 127.204C55.791 127.204 53.676 129.394 53.676 132.379ZM62.106 132.379C62.106 134.434 60.801 135.994 58.791 135.994C56.766 135.994 55.476 134.434 55.476 132.379C55.476 130.309 56.766 128.764 58.791 128.764C60.801 128.764 62.106 130.309 62.106 132.379ZM67.3508 137.374V133.054H72.3458V131.509H67.3508V128.914H72.4508V127.369H65.5958V137.374H67.3508Z" fill="#127E00"/>
</svg>
