<svg width="90" height="135" viewBox="0 0 90 135" fill="none" xmlns="http://www.w3.org/2000/svg">
<path d="M10.8424 112.374V110.829H5.74236V108.054H10.7374V106.509H5.74236V103.914H10.8424V102.369H3.98736V112.374H10.8424ZM16.3646 112.374C19.4846 112.374 21.5996 110.319 21.5996 107.379C21.5996 104.439 19.4846 102.369 16.3646 102.369H12.6446V112.374H16.3646ZM14.3996 103.914H16.3646C18.5996 103.914 19.7996 105.444 19.7996 107.379C19.7996 109.269 18.5396 110.829 16.3646 110.829H14.3996V103.914ZM23.294 108.429C23.294 110.889 24.719 112.554 27.629 112.554C30.524 112.554 31.949 110.904 31.949 108.414V102.369H30.179V108.369C30.179 109.959 29.294 110.994 27.629 110.994C25.949 110.994 25.064 109.959 25.064 108.369V102.369H23.294V108.429ZM38.8003 112.554C40.9003 112.554 42.1303 111.504 42.8953 110.304L41.3953 109.539C40.9153 110.379 39.9553 110.994 38.8003 110.994C36.8953 110.994 35.4253 109.479 35.4253 107.379C35.4253 105.279 36.8953 103.764 38.8003 103.764C39.9553 103.764 40.9153 104.394 41.3953 105.219L42.8953 104.454C42.1453 103.254 40.9003 102.204 38.8003 102.204C35.9203 102.204 33.6253 104.304 33.6253 107.379C33.6253 110.454 35.9203 112.554 38.8003 112.554ZM53.2266 112.374L49.2966 102.369H47.1066L43.1766 112.374H45.0966L45.8316 110.454H50.5716L51.3066 112.374H53.2266ZM50.0766 108.909H46.3266L48.2016 103.854L50.0766 108.909ZM57.4779 112.374V103.914H60.5079V102.369H52.6929V103.914H55.7229V112.374H57.4779ZM63.7502 112.374V102.369H61.9952V112.374H63.7502ZM65.427 107.379C65.427 110.364 67.542 112.554 70.542 112.554C73.542 112.554 75.657 110.364 75.657 107.379C75.657 104.394 73.542 102.204 70.542 102.204C67.542 102.204 65.427 104.394 65.427 107.379ZM73.857 107.379C73.857 109.434 72.552 110.994 70.542 110.994C68.517 110.994 67.227 109.434 67.227 107.379C67.227 105.309 68.517 103.764 70.542 103.764C72.552 103.764 73.857 105.309 73.857 107.379ZM86.0167 112.374V102.369H84.2617V109.464L79.1467 102.369H77.3467V112.374H79.1017V105.084L84.3217 112.374H86.0167ZM22.8664 130.374V126.639H25.5064C27.5914 126.639 28.7764 125.199 28.7764 123.504C28.7764 121.809 27.6064 120.369 25.5064 120.369H21.1114V130.374H22.8664ZM26.9764 123.504C26.9764 124.464 26.2564 125.094 25.2664 125.094H22.8664V121.914H25.2664C26.2564 121.914 26.9764 122.544 26.9764 123.504ZM37.9774 130.374L35.5324 126.444C36.7324 126.249 37.9024 125.289 37.9024 123.504C37.9024 121.659 36.6124 120.369 34.6324 120.369H30.2374V130.374H31.9924V126.639H33.7324L35.9524 130.374H37.9774ZM36.1024 123.504C36.1024 124.464 35.3824 125.094 34.3924 125.094H31.9924V121.914H34.3924C35.3824 121.914 36.1024 122.544 36.1024 123.504ZM39.2063 125.379C39.2063 128.364 41.3213 130.554 44.3213 130.554C47.3213 130.554 49.4363 128.364 49.4363 125.379C49.4363 122.394 47.3213 120.204 44.3213 120.204C41.3213 120.204 39.2063 122.394 39.2063 125.379ZM47.6363 125.379C47.6363 127.434 46.3313 128.994 44.3213 128.994C42.2963 128.994 41.0063 127.434 41.0063 125.379C41.0063 123.309 42.2963 121.764 44.3213 121.764C46.3313 121.764 47.6363 123.309 47.6363 125.379ZM50.676 125.379C50.676 128.364 52.791 130.554 55.791 130.554C58.791 130.554 60.906 128.364 60.906 125.379C60.906 122.394 58.791 120.204 55.791 120.204C52.791 120.204 50.676 122.394 50.676 125.379ZM59.106 125.379C59.106 127.434 57.801 128.994 55.791 128.994C53.766 128.994 52.476 127.434 52.476 125.379C52.476 123.309 53.766 121.764 55.791 121.764C57.801 121.764 59.106 123.309 59.106 125.379ZM64.3508 130.374V126.054H69.3458V124.509H64.3508V121.914H69.4508V120.369H62.5958V130.374H64.3508Z" fill="#C53F3F"/>
<path d="M14.6577 78.9268L78.0001 3.19971" stroke="#C53F3F" stroke-width="4"/>
<circle cx="45.5" cy="41.5" r="39.5" stroke="#C53F3F" stroke-width="4"/>
</svg>
