<svg width="97" height="142" viewBox="0 0 97 142" fill="none" xmlns="http://www.w3.org/2000/svg">
<path d="M86.5323 38.5281C89.0104 47.7767 88.0449 57.6107 83.8151 66.2007C79.5854 74.7908 72.3795 81.552 63.5379 85.2268C54.6962 88.9016 44.8207 89.2398 35.7484 86.1784C26.6761 83.117 19.0246 76.8645 14.2172 68.5839C9.40979 60.3033 7.7738 50.5584 9.61353 41.1619C11.4533 31.7654 16.6434 23.357 24.2187 17.5007C31.7939 11.6445 41.2384 8.7392 50.7953 9.3252C60.3523 9.9112 69.3711 13.9486 76.1741 20.6865" stroke="#127E00" stroke-width="4" stroke-linecap="round" stroke-linejoin="round"/>
<path d="M30 43.4026L45.4206 63.3737L85 10.3736" stroke="#127E00" stroke-width="4"/>
<path d="M22.2579 117.964C23.1429 118.909 24.4779 119.554 26.3229 119.554C29.0229 119.554 30.1929 118.129 30.1929 116.464C30.1929 114.289 28.2279 113.779 26.5779 113.359C25.3929 113.059 24.3729 112.804 24.3729 112.024C24.3729 111.274 25.0329 110.779 26.0679 110.779C27.1179 110.779 28.1829 111.139 28.9629 111.919L29.9679 110.614C29.0379 109.714 27.7779 109.219 26.2179 109.219C24.0279 109.219 22.5729 110.494 22.5729 112.144C22.5729 114.259 24.4929 114.739 26.1279 115.144C27.3429 115.459 28.4079 115.729 28.4079 116.629C28.4079 117.289 27.8379 117.994 26.3979 117.994C25.0029 117.994 23.9229 117.349 23.2329 116.614L22.2579 117.964ZM31.3591 114.379C31.3591 117.364 33.4741 119.554 36.4741 119.554C39.4741 119.554 41.5891 117.364 41.5891 114.379C41.5891 111.394 39.4741 109.204 36.4741 109.204C33.4741 109.204 31.3591 111.394 31.3591 114.379ZM39.7891 114.379C39.7891 116.434 38.4841 117.994 36.4741 117.994C34.4491 117.994 33.1591 116.434 33.1591 114.379C33.1591 112.309 34.4491 110.764 36.4741 110.764C38.4841 110.764 39.7891 112.309 39.7891 114.379ZM48.0039 119.554C50.1039 119.554 51.3339 118.504 52.0989 117.304L50.5989 116.539C50.1189 117.379 49.1589 117.994 48.0039 117.994C46.0989 117.994 44.6289 116.479 44.6289 114.379C44.6289 112.279 46.0989 110.764 48.0039 110.764C49.1589 110.764 50.1189 111.394 50.5989 112.219L52.0989 111.454C51.3489 110.254 50.1039 109.204 48.0039 109.204C45.1239 109.204 42.8289 111.304 42.8289 114.379C42.8289 117.454 45.1239 119.554 48.0039 119.554ZM55.2585 119.374V109.369H53.5035V119.374H55.2585ZM66.3853 119.374L62.4553 109.369H60.2653L56.3353 119.374H58.2553L58.9903 117.454H63.7303L64.4653 119.374H66.3853ZM63.2353 115.909H59.4853L61.3603 110.854L63.2353 115.909ZM73.6431 119.374V117.829H69.2331V109.369H67.4781V119.374H73.6431ZM25.8664 137.374V133.639H28.5064C30.5914 133.639 31.7764 132.199 31.7764 130.504C31.7764 128.809 30.6064 127.369 28.5064 127.369H24.1114V137.374H25.8664ZM29.9764 130.504C29.9764 131.464 29.2564 132.094 28.2664 132.094H25.8664V128.914H28.2664C29.2564 128.914 29.9764 129.544 29.9764 130.504ZM40.9774 137.374L38.5324 133.444C39.7324 133.249 40.9024 132.289 40.9024 130.504C40.9024 128.659 39.6124 127.369 37.6324 127.369H33.2374V137.374H34.9924V133.639H36.7324L38.9524 137.374H40.9774ZM39.1024 130.504C39.1024 131.464 38.3824 132.094 37.3924 132.094H34.9924V128.914H37.3924C38.3824 128.914 39.1024 129.544 39.1024 130.504ZM42.2063 132.379C42.2063 135.364 44.3213 137.554 47.3213 137.554C50.3213 137.554 52.4363 135.364 52.4363 132.379C52.4363 129.394 50.3213 127.204 47.3213 127.204C44.3213 127.204 42.2063 129.394 42.2063 132.379ZM50.6363 132.379C50.6363 134.434 49.3313 135.994 47.3213 135.994C45.2963 135.994 44.0063 134.434 44.0063 132.379C44.0063 130.309 45.2963 128.764 47.3213 128.764C49.3313 128.764 50.6363 130.309 50.6363 132.379ZM53.676 132.379C53.676 135.364 55.791 137.554 58.791 137.554C61.791 137.554 63.906 135.364 63.906 132.379C63.906 129.394 61.791 127.204 58.791 127.204C55.791 127.204 53.676 129.394 53.676 132.379ZM62.106 132.379C62.106 134.434 60.801 135.994 58.791 135.994C56.766 135.994 55.476 134.434 55.476 132.379C55.476 130.309 56.766 128.764 58.791 128.764C60.801 128.764 62.106 130.309 62.106 132.379ZM67.3508 137.374V133.054H72.3458V131.509H67.3508V128.914H72.4508V127.369H65.5958V137.374H67.3508Z" fill="#127E00"/>
</svg>
